# xmcd
#
# Track frame offsets:
#	150
#	13350
#	26550
#	40800
#	55050
#	75975
#	96900
#	114150
#	131400
#	144075
#	156750
#	169425
#	181275
#	193125
#	221550
#
# Disc length: 3331 seconds
#
# Revision: 1
# Processed by: cddbd v1.5.2PL0 Copyright (c) Steve Scherf et al.
# Submitted via: audiograbber 1.83.01
#
DISCID=c40d010f
DTITLE=Wayne Parenteau - Blues Backing Tracks Vol 3
DYEAR=1900
DGENRE=Backing Tracks
TTITLE0=Key of G 
TTITLE1=Key of G - no gtr
TTITLE2=Key of A7
TTITLE3=Key of A7 - no gtr
TTITLE4=Key of G - Gatton
TTITLE5=Key of G - Gatton - no gtr
TTITLE6=Key of Dm
TTITLE7=Key of Dm - no gtr
TTITLE8=Key of C 110 funk 
TTITLE9=Key of C 110 funk - no gtr
TTITLE10=Key of C 110 funk - drum and bass only
TTITLE11=Key of C - swingy
TTITLE12=Key of C - swingy - drum and bass only
TTITLE13=Key of Dm
TTITLE14=Key of Dm - 2 - no gtr
EXTD=Riff Library sold on ebay
EXTT0=
EXTT1=
EXTT2=
EXTT3=
EXTT4=
EXTT5=
EXTT6=
EXTT7=
EXTT8=
EXTT9=
EXTT10=
EXTT11=
EXTT12=
EXTT13=
EXTT14=
PLAYORDER=
